<?xml version="1.0" encoding="utf-8"?>
<!-- Generator: Adobe Illustrator 16.0.0, SVG Export Plug-In . SVG Version: 6.00 Build 0)  -->
<!DOCTYPE svg PUBLIC "-//W3C//DTD SVG 1.1//EN" "http://www.w3.org/Graphics/SVG/1.1/DTD/svg11.dtd">
<svg version="1.1" id="Layer_1" xmlns="http://www.w3.org/2000/svg" xmlns:xlink="http://www.w3.org/1999/xlink" x="0px" y="0px"
	 width="100px" height="100px" viewBox="0 0 100 100" enable-background="new 0 0 100 100" xml:space="preserve">
<g>
	<g>
		
			<radialGradient id="SVGID_1_" cx="53.1758" cy="47.3838" r="34.3165" gradientTransform="matrix(1 -0.0041 0.0041 1 0.9157 -1.4806)" gradientUnits="userSpaceOnUse">
			<stop  offset="0.8656" style="stop-color:#6D141D"/>
			<stop  offset="0.9518" style="stop-color:#C33940"/>
			<stop  offset="1" style="stop-color:#EF4B51"/>
		</radialGradient>
		<path fill="url(#SVGID_1_)" d="M55.887,10.619c-15.713,0.064-28.671,12.076-30.867,27.68c3.337-12.237,14.5-21.26,27.8-21.314
			c15.986-0.065,28.997,12.839,29.063,28.825c0.065,15.985-12.84,28.997-28.823,29.063c-1.3,0.005-2.576-0.083-3.829-0.244
			c2.23,0.51,4.544,0.783,6.921,0.774c17.304-0.072,31.271-14.632,31.197-32.521C87.274,24.992,73.189,10.548,55.887,10.619z"/>
	</g>
	<g>
		
			<radialGradient id="SVGID_2_" cx="53.1748" cy="44.0005" r="41.0577" gradientTransform="matrix(1 -0.0041 0.0041 1 0.9157 -1.4806)" gradientUnits="userSpaceOnUse">
			<stop  offset="0.2796" style="stop-color:#88C986"/>
			<stop  offset="0.4383" style="stop-color:#86C884"/>
			<stop  offset="0.5208" style="stop-color:#7EC67D"/>
			<stop  offset="0.5857" style="stop-color:#71C271"/>
			<stop  offset="0.6411" style="stop-color:#5EBC60"/>
			<stop  offset="0.6667" style="stop-color:#52B856"/>
			<stop  offset="0.762" style="stop-color:#51B655"/>
			<stop  offset="0.8143" style="stop-color:#4DAE51"/>
			<stop  offset="0.8562" style="stop-color:#46A04A"/>
			<stop  offset="0.8925" style="stop-color:#3C8C41"/>
			<stop  offset="0.9252" style="stop-color:#307335"/>
			<stop  offset="0.9549" style="stop-color:#215527"/>
			<stop  offset="0.9677" style="stop-color:#19451F"/>
		</radialGradient>
		<path fill="url(#SVGID_2_)" d="M21.072,42.212C20.992,22.768,36.691,6.941,56.135,6.86c9.61-0.038,18.332,3.78,24.711,9.995
			c-7.15-7.974-17.631-12.993-29.3-12.945C30.103,3.999,12.788,21.143,12.875,42.201c0.087,21.06,17.541,38.06,38.984,37.973
			c11.392-0.048,21.617-4.907,28.688-12.61c-6.281,5.981-14.766,9.675-24.124,9.713C36.979,77.356,21.151,61.657,21.072,42.212z"/>
	</g>
	<g opacity="0.05">
		
			<radialGradient id="SVGID_3_" cx="53.1748" cy="44.0005" r="41.0577" gradientTransform="matrix(1 -0.0041 0.0041 1 0.9157 -1.4806)" gradientUnits="userSpaceOnUse">
			<stop  offset="0.2796" style="stop-color:#FFFFFF"/>
			<stop  offset="0.6103" style="stop-color:#FFFFFF"/>
			<stop  offset="0.6667" style="stop-color:#FFFFFF"/>
			<stop  offset="0.7443" style="stop-color:#FDFDFD;stop-opacity:0.742"/>
			<stop  offset="0.7869" style="stop-color:#F5F7F5;stop-opacity:0.6006"/>
			<stop  offset="0.821" style="stop-color:#E7ECE8;stop-opacity:0.4874"/>
			<stop  offset="0.8506" style="stop-color:#D3DCD5;stop-opacity:0.3891"/>
			<stop  offset="0.8773" style="stop-color:#BAC7BC;stop-opacity:0.3004"/>
			<stop  offset="0.9019" style="stop-color:#9BAE9E;stop-opacity:0.2188"/>
			<stop  offset="0.9249" style="stop-color:#76907A;stop-opacity:0.1424"/>
			<stop  offset="0.9463" style="stop-color:#4C6E50;stop-opacity:0.0712"/>
			<stop  offset="0.9663" style="stop-color:#1D4823;stop-opacity:0.0047"/>
			<stop  offset="0.9677" style="stop-color:#19451F;stop-opacity:0"/>
		</radialGradient>
		<path fill="url(#SVGID_3_)" d="M21.072,42.212C20.992,22.768,36.691,6.941,56.135,6.86c9.61-0.038,18.332,3.78,24.711,9.995
			c-7.15-7.974-17.631-12.993-29.3-12.945C30.103,3.999,12.788,21.143,12.875,42.201c0.087,21.06,17.541,38.06,38.984,37.973
			c11.392-0.048,21.617-4.907,28.688-12.61c-6.281,5.981-14.766,9.675-24.124,9.713C36.979,77.356,21.151,61.657,21.072,42.212z"/>
	</g>
	<g>
		
			<radialGradient id="SVGID_4_" cx="48.9473" cy="50.7676" r="43.3152" gradientTransform="matrix(1 -0.0041 0.0041 1 0.9157 -1.4806)" gradientUnits="userSpaceOnUse">
			<stop  offset="0.6022" style="stop-color:#867266"/>
			<stop  offset="0.7393" style="stop-color:#857064"/>
			<stop  offset="0.7886" style="stop-color:#7F6A5D"/>
			<stop  offset="0.8238" style="stop-color:#766052"/>
			<stop  offset="0.8521" style="stop-color:#685141"/>
			<stop  offset="0.8763" style="stop-color:#573E2B"/>
			<stop  offset="0.9232" style="stop-color:#523B28"/>
			<stop  offset="0.9752" style="stop-color:#453121"/>
			<stop  offset="1" style="stop-color:#3C2B1C"/>
		</radialGradient>
		<path fill="url(#SVGID_4_)" d="M84.816,19.505c4.703,6.714,7.485,14.878,7.522,23.699c0.094,23.005-18.48,41.733-41.487,41.827
			C27.845,85.126,9.119,66.551,9.024,43.545C8.979,32.373,13.343,22.218,20.47,14.709C10.415,23.206,4.044,35.924,4.103,50.119
			c0.105,25.459,20.829,46.013,46.288,45.91C75.849,95.924,96.403,75.198,96.3,49.74C96.251,38.146,91.916,27.577,84.816,19.505z"/>
	</g>
	<g opacity="0.13">
		
			<radialGradient id="SVGID_5_" cx="48.9473" cy="50.7676" r="43.3152" gradientTransform="matrix(1 -0.0041 0.0041 1 0.9157 -1.4806)" gradientUnits="userSpaceOnUse">
			<stop  offset="0.6022" style="stop-color:#FFFFFF"/>
			<stop  offset="0.8376" style="stop-color:#FFFFFF"/>
			<stop  offset="0.8763" style="stop-color:#FFFFFF"/>
			<stop  offset="0.891" style="stop-color:#FBFBFA;stop-opacity:0.8812"/>
			<stop  offset="0.9074" style="stop-color:#F0EEED;stop-opacity:0.7492"/>
			<stop  offset="0.9245" style="stop-color:#DCD9D7;stop-opacity:0.6107"/>
			<stop  offset="0.9422" style="stop-color:#C2BCB8;stop-opacity:0.4677"/>
			<stop  offset="0.9603" style="stop-color:#9F9790;stop-opacity:0.3213"/>
			<stop  offset="0.9787" style="stop-color:#75695E;stop-opacity:0.172"/>
			<stop  offset="0.9972" style="stop-color:#443425;stop-opacity:0.023"/>
			<stop  offset="1" style="stop-color:#3C2B1C;stop-opacity:0"/>
		</radialGradient>
		<path fill="url(#SVGID_5_)" d="M84.816,19.505c4.703,6.714,7.485,14.878,7.522,23.699c0.094,23.005-18.48,41.733-41.487,41.827
			C27.845,85.126,9.119,66.551,9.024,43.545C8.979,32.373,13.343,22.218,20.47,14.709C10.415,23.206,4.044,35.924,4.103,50.119
			c0.105,25.459,20.829,46.013,46.288,45.91C75.849,95.924,96.403,75.198,96.3,49.74C96.251,38.146,91.916,27.577,84.816,19.505z"/>
	</g>
</g>
</svg>
