<?xml version="1.0" encoding="utf-8"?>
<!-- Generator: Adobe Illustrator 16.0.0, SVG Export Plug-In . SVG Version: 6.00 Build 0)  -->
<!DOCTYPE svg PUBLIC "-//W3C//DTD SVG 1.1//EN" "http://www.w3.org/Graphics/SVG/1.1/DTD/svg11.dtd">
<svg version="1.1" id="Layer_1" xmlns="http://www.w3.org/2000/svg" xmlns:xlink="http://www.w3.org/1999/xlink" x="0px" y="0px"
	 width="100px" height="100px" viewBox="0 0 100 100" enable-background="new 0 0 100 100" xml:space="preserve">
<g>
	<path fill="#FF1D52" d="M52.627,72.898c-1.195,0.008-2.369-0.072-3.521-0.222c2.051,0.468,4.179,0.72,6.367,0.712
		C71.385,73.322,84.23,59.932,84.162,43.48c-0.068-16.412-12.959-29.672-28.818-29.672c-0.039,0-0.078,0-0.115,0
		C40.778,13.87,28.862,24.917,26.841,39.267c3.07-11.254,13.335-19.552,25.568-19.602c14.7-0.061,26.667,11.809,26.728,26.509
		C79.195,60.875,67.327,72.841,52.627,72.898z"/>
	<path fill="#0095F6" d="M51.525,77.777c10.478-0.043,19.881-4.514,26.384-11.598c-5.776,5.502-13.58,8.898-22.187,8.934
		c-17.881,0.074-32.439-14.364-32.514-32.247c-0.073-17.883,14.366-32.438,32.249-32.513c8.838-0.034,16.858,3.477,22.726,9.192
		C71.607,12.212,61.969,7.596,51.236,7.64c-19.72,0.082-35.644,15.85-35.563,35.216C15.754,62.223,31.805,77.855,51.525,77.777z"/>
	<path fill="#B9D000" d="M81.835,21.982c4.326,6.175,6.884,13.683,6.917,21.794C88.84,64.934,71.757,82.157,50.6,82.245
		c-21.158,0.088-38.38-16.997-38.468-38.153c-0.042-10.275,3.972-19.614,10.526-26.52c-9.247,7.813-15.105,19.51-15.054,32.563
		c0.097,23.416,19.157,42.318,42.569,42.224c23.414-0.098,42.318-19.157,42.222-42.57C92.352,39.125,88.363,29.406,81.835,21.982z"
		/>
</g>
</svg>
